<svg xmlns="http://www.w3.org/2000/svg" viewBox="0 0 48 48" role="img"
     aria-label="Comunidade Game">
  <path d="M4.62 3 H43.38 A3.23 3.23 0 0 1 46.62 6.23 V15.92 C46.62 29.92 30.46 36.38 24 45 C17.54 36.38 1.38 29.92 1.38 15.92 V6.23 A3.23 3.23 0 0 1 4.62 3 Z" fill="#F25C05" stroke="#B33C00" stroke-width="1.62"/>
  <path d="M17.2 28.4Q15.2 28.4 13.8 27.6Q12.5 26.7 11.8 25Q11.2 23.3 11.2 20.6Q11.2 16.7 12.7 14.8Q14.3 12.9 17.4 12.9Q19 12.9 20.3 13.5Q21.5 14.1 22.2 15.5Q22.9 16.8 22.9 18.9H19.9Q19.9 17.8 19.6 17Q19.3 16.2 18.7 15.8Q18.2 15.4 17.3 15.4Q16.3 15.4 15.6 15.9Q14.9 16.4 14.6 17.4Q14.3 18.4 14.3 19.9V21.4Q14.3 22.9 14.6 23.9Q14.9 24.9 15.6 25.4Q16.2 25.9 17.3 25.9Q18.1 25.9 18.8 25.5Q19.4 25.1 19.7 24.3Q20 23.6 20 22.4H22.9Q22.9 24.5 22.2 25.8Q21.5 27.2 20.2 27.8Q18.9 28.4 17.2 28.4Z M30.6 28.4Q27.6 28.4 26.1 26.5Q24.6 24.6 24.6 20.6Q24.6 18 25.3 16.3Q26 14.6 27.5 13.7Q28.9 12.9 31 12.9Q32.3 12.9 33.4 13.2Q34.4 13.6 35.2 14.2Q36 14.9 36.4 16Q36.8 17 36.8 18.4H33.8Q33.8 17.7 33.6 17.1Q33.5 16.6 33.1 16.2Q32.7 15.8 32.2 15.6Q31.7 15.4 31 15.4Q30.1 15.4 29.5 15.7Q28.9 16 28.5 16.5Q28.1 17.1 27.9 17.9Q27.7 18.8 27.7 20V21.4Q27.7 22.9 28 23.9Q28.4 24.9 29.1 25.4Q29.8 25.9 30.9 25.9Q31.9 25.9 32.6 25.5Q33.2 25.1 33.6 24.4Q33.9 23.7 33.9 22.7V22.4H30.5V20.1H36.8V28.2H35L34.8 26.6Q34.3 27.2 33.7 27.6Q33.1 28 32.3 28.2Q31.6 28.4 30.6 28.4Z" fill="#10141F"/>
</svg>
